:SAMPLES-PER-SECOND 30
:FULLY-SPECIFIED
:DEGREES
250
root  -37.6357 34.5277 -12.3944 163.909 -76.5936 -160.103
RightUpLeg  -13.9731 -15.9235 -3.9782
RightLeg  28.8332 11.5291 5.35552
RightFoot  8.71962 -0.119265 2.02828
RightToes  -49.6653 -0.299922 -0.362965
Spine  -4.76206 -0.10087 0.890778
Spine1  -9.51559 0.143134 2.35844
HEad  -76.5258 -0.489772 3.60194
LeftShoulder1  -1.94126e-019 -3.10601e-018 -2.51263e-017
LeftArm  -61.4086 -19.8189 8.02691
LeftForeArm  164.209 -69.4346 -153.254
LeftHand  -0.980123 -2.33723 14.892
RightShoulder  -4.96962e-017 0 -2.36833e-017
RightArm  -79.1095 26.7911 -15.2609
RightForeArm  127.182 80.9749 101.279
RightHand  -0.45174 -2.46849 -17.6877
LeftUpLeg  -2.32382 12.8439 9.8835
LeftLeg  30.9576 0.212689 0.104924
LeftFoot  -0.849804 0.000108435 0.176089
LeftToes  -47.2731 1.70063e-006 7.6642e-008
251
root  -38.6738 36.2195 -11.8686 159.885 -81.3818 -155.669
RightUpLeg  -9.30089 -15.6937 -5.64957
RightLeg  20.3613 7.11087 2.12261
RightFoot  24.4169 -0.580502 3.17848
RightToes  -59.2186 -0.387185 -0.396155
Spine  -5.88937 -0.162731 0.387502
Spine1  -11.764 -0.0501287 1.40464
HEad  -81.1758 -0.716799 1.70097
LeftShoulder1  -1.94126e-019 -3.10601e-018 -2.51263e-017
LeftArm  -60.5425 -23.8384 13.2961
LeftForeArm  130.596 -78.8745 -120.173
LeftHand  -0.863429 -2.0282 13.6815
RightShoulder  -4.96962e-017 0 -2.36833e-017
RightArm  -79.879 30.2312 -20.5566
RightForeArm  58.8638 73.1174 30.4525
RightHand  -0.45666 -2.48229 -17.9669
LeftUpLeg  -1.41379 13.0328 9.90575
LeftLeg  26.4781 -8.30337 -3.47723
LeftFoot  14.7265 0.292933 -2.10508
LeftToes  -51.1309 1.70063e-006 7.6642e-008
252
root  -39.4556 37.6377 -11.2745 154.599 -86.3804 -149.448
RightUpLeg  -8.65272 -17.9959 -7.07494
RightLeg  17.9012 0.849682 0.214176
RightFoot  34.9061 -0.0298662 0.627785
RightToes  -42.9863 -0.242768 -0.331363
Spine  -6.46785 -0.204147 -0.541455
Spine1  -12.9186 -0.280556 -0.422484
HEad  -88.3142 -0.130933 -0.97954
LeftShoulder1  -1.94126e-019 -3.10601e-018 -2.51263e-017
LeftArm  -61.7411 -28.3914 20.3585
LeftForeArm  56.9294 -75.9816 -41.8639
LeftHand  -0.852619 -2.39844 12.8981
RightShoulder  -4.96962e-017 0 -2.36833e-017
RightArm  -86.4375 34.0051 -29.9352
RightForeArm  43.9642 50.8147 10.2704
RightHand  -0.434857 -2.33042 -16.2602
LeftUpLeg  -2.36925 14.4347 9.56953
LeftLeg  23.9098 -18.2034 -6.5698
LeftFoot  27.9426 2.34472 -9.24295
LeftToes  -53.1855 1.70063e-006 7.6642e-008
253
root  -39.9744 38.5184 -10.7608 36.5839 -87.3142 -30.6086
RightUpLeg  -9.65644 -19.8413 -6.55389
RightLeg  19.4565 -1.47394 -0.417998
RightFoot  33.9021 0.389708 -0.732328
RightToes  -35.172 -0.181109 -0.286258
Spine  -6.50559 -0.0947139 -1.17305
Spine1  -12.9828 -0.16397 -1.84332
HEad  -95.1158 0.202271 -3.32122
LeftShoulder1  -1.94126e-019 -3.10601e-018 -2.51263e-017
LeftArm  -68.1059 -36.1072 27.9925
LeftForeArm  37.9218 -59.7089 -15.8917
LeftHand  -0.768429 -3.35858 10.4346
RightShoulder  -4.96962e-017 0 -2.36833e-017
RightArm  -99.3895 35.3594 -41.8442
RightForeArm  49.3562 21.9789 2.18651
RightHand  -0.500345 -1.56284 -15.0547
LeftUpLeg  -4.97536 14.2774 9.83499
LeftLeg  24.1571 -14.777 -5.44372
LeftFoot  30.0094 2.15815 -7.87795
LeftToes  -42.4278 1.70063e-006 7.6642e-008
254
root  -40.4987 39.0738 -10.4012 17.3504 -82.1731 -12.681
RightUpLeg  -7.75315 -18.8566 -5.28005
RightLeg  18.1607 0.500718 0.128069
RightFoot  33.0044 0.053115 0.355947
RightToes  -35.5179 -0.183705 -0.288429
Spine  -5.77642 0.357234 -1.59005
Spine1  -11.5174 0.657517 -3.12903
HEad  -97.3374 0.177623 -4.45068
LeftShoulder1  -1.94126e-019 -3.10601e-018 -2.51263e-017
LeftArm  -82.0641 -45.6069 34.9964
LeftForeArm  41.3651 -42.9992 -7.72235
LeftHand  -0.928332 -5.10117 10.5551
RightShoulder  -4.96962e-017 0 -2.36833e-017
RightArm  -127.156 32.6538 -48.5298
RightForeArm  68.1677 6.40504 1.07546
RightHand  0.121332 -6.15392 -20.0661
LeftUpLeg  -5.43737 13.2935 11.2249
LeftLeg  24.359 -3.96555 -1.49871
LeftFoot  27.7457 0.470805 -1.74464
LeftToes  -40.8763 1.70063e-006 7.6642e-008
255
root  -41.0662 39.1138 -9.98315 11.4179 -77.4234 -8.96818
RightUpLeg  -5.81961 -16.0246 -4.33247
RightLeg  16.8673 1.68433 0.393839
RightFoot  31.8928 -0.132165 0.990953
RightToes  -37.5762 -0.199416 -0.301025
Spine  -4.80824 0.540129 -2.07673
Spine1  -9.63765 1.0462 -4.07401
HEad  -94.9527 2.51062 -5.06151
LeftShoulder1  -1.94126e-019 -3.10601e-018 -2.51263e-017
LeftArm  -96.7094 -50.7194 36.9285
LeftForeArm  45.1082 -36.5208 -5.63728
LeftHand  -1.10223 -4.32066 13.4154
RightShoulder  -4.96962e-017 0 -2.36833e-017
RightArm  -148.132 31.5089 -47.647
RightForeArm  61.5812 4.71352 0.847233
RightHand  1.81246 -12.7911 -27.8712
LeftUpLeg  -5.89216 11.6868 12.2396
LeftLeg  27.4393 3.36901 1.47764
LeftFoot  23.1939 -0.311822 1.68092
LeftToes  -37.3023 1.70063e-006 7.6642e-008
256
root  -41.4998 38.741 -9.48185 8.19766 -72.8283 -6.3694
RightUpLeg  -6.3296 -13.1586 -3.66933
RightLeg  15.8707 4.71924 1.01803
RightFoot  27.3607 -0.431134 2.28222
RightToes  -37.2501 -0.196897 -0.299067
Spine  -4.57232 0.131897 -2.15098
Spine1  -9.16056 0.24544 -4.05786
HEad  -89.5177 6.92836 -5.27408
LeftShoulder1  -1.94126e-019 -3.10601e-018 -2.51263e-017
LeftArm  -98.2482 -50.2086 30.5501
LeftForeArm  34.7993 -42.8363 -8.04421
LeftHand  -0.798166 -0.756298 15.178
RightShoulder  -4.96962e-017 0 -2.36833e-017
RightArm  -142.324 34.2995 -44.7911
RightForeArm  34.1492 12.2648 1.76258
RightHand  1.4132 -12.5285 -22.8852
LeftUpLeg  -8.44824 8.95897 11.8195
LeftLeg  31.2734 8.00802 4.15931
LeftFoot  21.8895 -0.668707 3.61853
LeftToes  -33.7681 1.70063e-006 7.6642e-008
257
root  -41.9081 37.9262 -8.9278 7.11734 -69.1474 -5.5947
RightUpLeg  -7.93948 -8.71319 -3.28949
RightLeg  15.3113 9.47126 1.9409
RightFoot  22.2413 -0.637729 3.72741
RightToes  -39.4903 -0.214424 -0.312225
Spine  -4.47228 -0.300796 -2.22141
Spine1  -8.95143 -0.663141 -3.93282
HEad  -82.0164 11.3309 -3.35184
LeftShoulder1  -1.94126e-019 -3.10601e-018 -2.51263e-017
LeftArm  -94.9044 -46.8212 22.2755
LeftForeArm  23.9982 -54.4331 -13.7508
LeftHand  -0.525901 1.01935 13.9575
RightShoulder  -4.96962e-017 0 -2.36833e-017
RightArm  -122.489 34.2904 -38.0477
RightForeArm  19.6541 24.1063 4.05184
RightHand  0.467758 -10.2988 -11.8312
LeftUpLeg  -10.8571 5.85676 11.1269
LeftLeg  34.7451 10.2425 6.10825
LeftFoot  18.7187 -0.646535 4.08273
LeftToes  -33.5254 1.70063e-006 7.6642e-008
258
root  -42.2626 36.7089 -8.36986 6.73725 -66.8095 -5.48234
RightUpLeg  -10.2321 -4.67829 -3.33744
RightLeg  14.9069 15.61 3.06118
RightFoot  21.0364 -1.00788 5.87219
RightToes  -43.9902 -0.251118 -0.336535
Spine  -4.14955 -0.234855 -2.11095
Spine1  -8.32401 -0.528511 -3.55041
HEad  -75.4141 15.3888 0.116273
LeftShoulder1  -1.94126e-019 -3.10601e-018 -2.51263e-017
LeftArm  -91.025 -41.0977 15.2368
LeftForeArm  26.5497 -66.9589 -24.6305
LeftHand  -0.509013 0.868629 13.0716
RightShoulder  -4.96962e-017 0 -2.36833e-017
RightArm  -104.01 31.2016 -30.3704
RightForeArm  27.058 44.4182 8.97808
RightHand  0.445955 -9.50793 -13.3428
LeftUpLeg  -12.2913 3.65516 10.378
LeftLeg  36.6432 10.2613 6.58351
LeftFoot  15.13 -0.433069 3.42158
LeftToes  -29.8859 1.70063e-006 7.6642e-008
259
root  -42.5786 35.1435 -7.86468 8.18887 -64.9548 -7.95172
RightUpLeg  -13.6515 -3.32906 -2.55883
RightLeg  22.208 13.3669 4.43013
RightFoot  12.6137 -0.299527 3.16745
RightToes  -39.9313 -0.217935 -0.314734
Spine  -3.66472 0.178133 -1.34643
Spine1  -7.38624 0.398761 -2.0436
HEad  -69.8966 19.0074 4.8323
LeftShoulder1  -1.94126e-019 -3.10601e-018 -2.51263e-017
LeftArm  -86.5317 -33.9808 10.141
LeftForeArm  51.6691 -77.1344 -51.2278
LeftHand  -0.54437 1.13274 14.8224
RightShoulder  -4.96962e-017 0 -2.36833e-017
RightArm  -92.0022 26.7792 -24.7763
RightForeArm  43.6778 63.8252 18.4016
RightHand  0.436814 -8.66255 -16.1975
LeftUpLeg  -12.85 2.97767 10.7344
LeftLeg  38.7204 11.7747 8.13718
LeftFoot  14.7638 -0.487867 3.9259
LeftToes  -54.3512 1.70063e-006 7.6642e-008
